<?xml version="1.0" encoding="UTF-8" standalone="no"?>
<!-- Created with Inkscape (http://www.inkscape.org/) -->

<svg
   xmlns:dc="http://purl.org/dc/elements/1.1/"
   xmlns:cc="http://creativecommons.org/ns#"
   xmlns:rdf="http://www.w3.org/1999/02/22-rdf-syntax-ns#"
   xmlns:svg="http://www.w3.org/2000/svg"
   xmlns="http://www.w3.org/2000/svg"
   xmlns:sodipodi="http://sodipodi.sourceforge.net/DTD/sodipodi-0.dtd"
   xmlns:inkscape="http://www.inkscape.org/namespaces/inkscape"
   version="1.1"
   id="svg64"
   width="773.12"
   height="622.08002"
   viewBox="0 0 773.12 622.08002"
   sodipodi:docname="nc-rando-logo_white.svg"
   inkscape:version="0.92.2 (5c3e80d, 2017-08-06)">
  <metadata
     id="metadata70">
    <rdf:RDF>
      <cc:Work
         rdf:about="">
        <dc:format>image/svg+xml</dc:format>
        <dc:type
           rdf:resource="http://purl.org/dc/dcmitype/StillImage" />
        <dc:title></dc:title>
      </cc:Work>
    </rdf:RDF>
  </metadata>
  <defs
     id="defs68" />
  <sodipodi:namedview
     pagecolor="#ffffff"
     bordercolor="#666666"
     borderopacity="1"
     objecttolerance="10"
     gridtolerance="10"
     guidetolerance="10"
     inkscape:pageopacity="0"
     inkscape:pageshadow="2"
     inkscape:window-width="1920"
     inkscape:window-height="1032"
     id="namedview66"
     showgrid="false"
     inkscape:zoom="1.3583462"
     inkscape:cx="389.50476"
     inkscape:cy="277.91149"
     inkscape:window-x="0"
     inkscape:window-y="1050"
     inkscape:window-maximized="1"
     inkscape:current-layer="svg64" />
  <path
     style="fill:#ffffff;stroke-width:0.63999999"
     d="m 217.23408,571.71334 c -1.88838,-2.024 -9.11567,-9.584 -16.06063,-16.8 -6.94497,-7.216 -15.80892,-16.432 -19.69769,-20.48 l -7.07047,-7.36 -0.0184,21.28 -0.0183,21.28 h -6.08002 -6.08 v -36.16 c 0,-19.888 0.22177,-36.16 0.49282,-36.16 0.27105,0 4.05951,3.816 8.4188,8.48 4.35929,4.664 11.26553,11.93756 15.34718,16.16346 4.08166,4.22591 10.8052,11.22248 14.9412,15.54794 l 7.52,7.86448 v -21.14795 -21.14793 h 6.08 6.08 v 36.16 c 0,19.888 -0.0947,36.16 -0.21053,36.16 -0.1158,0 -1.75558,-1.656 -3.64396,-3.68 z m 216.054,-0.32 c -7.4131,-7.8192 -28.94558,-30.28194 -35.7038,-37.24632 l -6.8643,-7.07368 -0.0157,21.28 -0.0157,21.28 h -6.08 -6.08 v -36.16 c 0,-20.5055 0.24483,-36.16 0.56553,-36.16 0.31104,0 1.65527,1.224 2.98718,2.72 1.33191,1.496 7.64557,8.192 14.03034,14.88 6.38478,6.688 15.48055,16.23477 20.21282,21.21506 l 8.60413,9.05506 0.16863,-21.05506 0.16862,-21.05506 h 6.07138 6.07137 v 36.16 c 0,19.888 -0.0738,36.16 -0.16412,36.16 -0.0903,0 -1.87063,-1.8 -3.95637,-4 z m 74.7957,1.20223 c -2.71481,-3.0198 -24.90016,-26.15401 -36.58087,-38.14543 l -7.18566,-7.3768 -0.0143,21.28 -0.0143,21.28 h -6.08008 -6.08 v -36.5727 -36.5727 l 8.1529,8.5727 c 4.4841,4.71498 11.90616,12.4607 16.49347,17.2127 4.5873,4.752 11.43049,11.91502 15.20709,15.91782 l 6.86654,7.27782 v -21.19782 -21.19782 h 6.08 6.08 v 36.16 c 0,19.888 -0.0922,36.16 -0.20479,36.16 -0.11263,0 -1.33663,-1.259 -2.72,-2.79777 z m -184.27521,-2.43121 c -5.78305,-1.09484 -12.20018,-4.7075 -17.24794,-9.71011 -6.80992,-6.74899 -9.95206,-14.28979 -9.95206,-23.88388 0,-10.08383 2.99357,-17.43413 9.86291,-24.21703 7.29619,-7.20439 15.21515,-10.54109 25.01709,-10.54109 9.35668,0 16.29165,2.72953 23.11733,9.09872 8.1379,7.59364 11.2796,14.57266 11.3092,25.12237 0.01,3.52 -0.33745,7.66225 -0.77184,9.205 -5.00283,17.76767 -22.71809,28.45049 -41.33469,24.92602 z m 17.30921,-13.48215 c 4.08769,-2.09863 8.23406,-6.22646 10.42628,-10.37966 1.53276,-2.90383 1.70451,-3.90633 1.70451,-9.94921 0,-6.18435 -0.15167,-7.01933 -1.9027,-10.4752 -5.35966,-10.57792 -18.62654,-15.19611 -29.24501,-10.18018 -9.82186,4.63963 -14.91879,14.73037 -12.74049,25.22321 1.50325,7.2411 7.50837,14.25029 14.27562,16.66253 4.95814,1.76737 13.10134,1.34745 17.48179,-0.90149 z m 253.8488,13.2727 c -7.0767,-1.99037 -12.86062,-6.91986 -16.01535,-13.64948 l -1.70266,-3.63209 -0.19456,-24.8 -0.19456,-24.8 h 6.11456 6.11456 v 21.4085 c 0,23.81702 0.33041,26.74543 3.41386,30.25728 2.49474,2.84137 5.21896,4.01422 9.32392,4.01422 3.89881,0 6.22664,-0.8344 8.59464,-3.08072 3.84777,-3.65003 3.90195,-4.03566 4.13105,-29.39928 l 0.20955,-23.2 h 6.07805 6.07805 l -0.19456,24.81539 -0.19456,24.81539 -2.10655,4.27708 c -2.59972,5.27839 -7.81122,10.15566 -12.90471,12.0771 -4.63585,1.7488 -12.08584,2.15239 -16.55073,0.89661 z m 112.49039,0.12806 c -7.7775,-2.20791 -13.9339,-9.48632 -15.0768,-17.82444 l -0.3935,-2.87099 5.991,-1.27889 5.9909,-1.27888 0.5387,1.96179 c 2.1866,7.96384 4.1751,9.96178 9.9145,9.96178 2.724,0 3.6291,-0.32208 5.4854,-1.95199 3.9896,-3.50288 4.5443,-8.8449 1.3167,-12.68068 -1.0285,-1.22226 -4.2595,-3.04623 -9.3244,-5.26389 -12.4898,-5.46854 -16.8012,-10.29163 -16.8265,-18.82344 -0.016,-5.37861 1.744,-9.44291 5.5962,-12.92317 5.256,-4.74846 13.7813,-6.54667 21.0373,-4.43731 3.9155,1.13828 9.0107,5.20344 11.4318,9.12083 1.6734,2.70776 1.5698,2.84898 -4.5735,6.22775 l -4.2038,2.31208 -1.9984,-2.83526 c -1.5137,-2.14749 -2.6388,-3.00767 -4.6379,-3.54598 -6.0859,-1.63875 -12.1096,3.59544 -9.5251,8.27671 0.9031,1.63583 2.8857,2.76723 13.4815,7.69347 10.4949,4.87934 14.4686,10.84646 13.8316,20.77083 -0.53,8.25798 -4.6414,14.53655 -11.8294,18.0643 -4.0309,1.97829 -11.7154,2.60597 -16.2263,1.32538 z M 43.168569,536.35334 v -33.28 l 9.44,0.009 c 13.54694,0.0136 18.59337,1.34274 23.42271,6.16927 4.27538,4.27289 5.21351,6.73015 5.21552,13.66127 0.001,5.16518 -0.23027,6.534 -1.54037,9.09738 -2.02128,3.95485 -5.84386,7.87774 -8.67327,8.90087 -1.24552,0.45039 -2.25691,0.97703 -2.24753,1.17032 0.009,0.19329 4.43076,6.39943 9.82529,13.79143 l 9.80822,13.44 -7.73831,0.18093 c -4.50593,0.10535 -7.82321,-0.0738 -7.94156,-0.42883 -0.11179,-0.33536 -2.56292,-3.93915 -5.44698,-8.00841 -2.88404,-4.06881 -6.68372,-9.45966 -8.44372,-11.97921 l -3.2,-4.58101 -0.17353,12.56849 -0.17353,12.5685 h -6.06647 -6.06647 z m 21.61756,-5.36635 c 3.00441,-1.55363 4.17991,-3.38345 4.47352,-6.96357 0.45131,-5.50318 -2.55145,-8.25411 -9.93108,-9.09822 l -4,-0.45754 v 9.11401 9.11401 l 3.85605,-0.40303 c 2.12083,-0.22167 4.64151,-0.80922 5.60151,-1.30566 z m 24.46244,38.07007 c 0,-0.61039 3.79062,-8.93419 12.084271,-26.53578 1.80166,-3.82364 3.27573,-7.03697 3.27573,-7.14074 0,-0.10377 1.82115,-4.03134 4.04701,-8.72794 2.22585,-4.69659 6.15839,-13.07526 8.73898,-18.61926 2.58058,-5.544 4.8892,-10.08 5.13026,-10.08 0.24106,0 0.81176,0.792 1.26822,1.76 0.98864,2.0966 10.82146,23.90245 18.25346,40.48 2.91945,6.512 7.06623,15.72002 9.21507,20.46228 2.14885,4.74226 3.907,8.70226 3.907,8.8 0,0.0977 -3.096,0.17475 -6.88,0.17111 l -6.88,-0.007 -3.2,-7.6668 -3.2,-7.66679 -12.85765,-0.007 -12.85765,-0.007 -3.46235,7.66422 -3.46235,7.66423 -6.560001,0.0158 c -3.608,0.009 -6.56,-0.24357 -6.56,-0.56053 z m 39.334801,-29.34372 c -0.55131,-1.32 -2.1757,-5.0758 -3.60977,-8.34622 l -2.60739,-5.94623 -3.32328,7.22623 c -1.82781,3.97442 -3.51024,7.73022 -3.73874,8.34622 -0.38049,1.02576 0.20288,1.12 6.93305,1.12 h 7.34851 z m 107.2252,-3.42571 v -33.34571 l 12.96,0.28244 c 11.064,0.24113 13.58263,0.48568 17.21596,1.67164 8.77463,2.86416 16.05828,9.58879 19.51511,18.01734 1.4121,3.44302 1.75761,5.44766 2.00469,11.63125 0.25745,6.4432 0.10263,8.11642 -1.12515,12.16 -2.54564,8.38384 -8.4051,15.37046 -16.19709,19.31285 -5.38412,2.72412 -11.00431,3.59238 -23.33352,3.60479 l -11.04,0.0111 z m 25.54776,20.18193 c 5.9454,-1.76559 11.74818,-7.82987 13.43098,-14.03622 1.66154,-6.12795 0.35432,-13.95641 -3.13476,-18.77294 -3.99963,-5.52132 -9.15218,-7.96472 -18.51874,-8.78178 l -5.16524,-0.45056 v 21.92528 21.92528 l 5.16524,-0.45057 c 2.84087,-0.24781 6.54101,-0.85913 8.22252,-1.35849 z m 265.01224,-20.11622 v -33.28 h 18.88 18.88 v 5.76 5.76 h -12.8 -12.8 v 6.4 6.4 h 12.48 12.48 v 6.08 6.08 h -12.48 -12.48 v 9.28 9.28 h 12.8 12.8 v 5.76 5.76 h -18.88 -18.88 z m 115.2,0 v -33.28 l 9.44,0.009 c 9.47226,0.009 15.5472,0.89607 19.2317,2.80668 2.6036,1.35005 6.362,5.24433 7.9719,8.25988 2.0361,3.81389 2.0737,13.49874 0.069,17.72398 -1.6507,3.47894 -5.0167,6.97838 -8.3403,8.6711 -1.3487,0.6869 -2.5511,1.29974 -2.6719,1.36188 -0.1964,0.10104 4.0888,6.15104 15.8996,22.44702 l 3.8268,5.28 -7.8334,-0.0339 -7.8333,-0.0339 -3.7261,-5.56607 c -2.0492,-3.06135 -5.93723,-8.73408 -8.63995,-12.60608 l -4.91398,-7.04 -0.1735,12.64 -0.17357,12.64 h -6.0664 -6.0665 v -33.28 z m 19.60141,-4.78844 c 4.19249,-1.24503 6.05609,-3.28699 6.48669,-7.10738 0.6562,-5.82108 -2.2815,-8.55652 -10.25956,-9.55332 l -3.66854,-0.45835 v 9.03375 9.03374 h 2.12384 c 1.16813,0 3.56102,-0.4268 5.31757,-0.94844 z m -274.0555,-52.91944 c -3.54975,-3.63667 -12.8998,-13.38013 -20.77789,-21.65213 -19.06965,-20.02314 -40.47253,-42.3506 -51.52938,-53.75539 -4.95075,-5.10653 -16.02151,-16.62861 -24.60168,-25.60461 -8.58018,-8.976 -18.37336,-19.2 -21.7626,-22.72 -3.38926,-3.52 -12.4651,-13.024 -20.16854,-21.12 -7.70343,-8.096 -17.35311,-18.176 -21.44372,-22.4 -4.09061,-4.224 -10.58401,-10.97423 -14.42979,-15.00052 -3.84577,-4.02629 -8.00031,-8.36721 -9.23231,-9.6465 -1.232,-1.27928 -5.552,-5.76256 -9.6,-9.96282 -4.048,-4.20027 -13.696,-14.25881 -21.44,-22.35232 -7.744,-8.0935 -17.12144,-17.88399 -20.83876,-21.75665 -3.71732,-3.87266 -12.93332,-13.51337 -20.48,-21.4238 -7.54668,-7.91044 -17.09643,-17.84644 -21.22166,-22.08001 l -7.50041,-7.69738 -0.0196,139.68 -0.0196,139.68 h -30.400001 -30.4 l 0.0177,-214.24 0.0177,-214.239999 3.69829,3.97337 c 3.74298,4.02139 20.89752,22.01207 34.96249,36.66663 4.22298,4.4 10.43547,10.88 13.80553,14.4 3.37007,3.52 9.451281,9.856 13.513801,14.079999 4.06253,4.22399 10.383,10.82179 14.0455,14.66175 3.6625,3.83998 7.66709,8.02196 8.89909,9.29332 1.232,1.27134 7.72584,8.06555 14.43075,15.09823 38.30726,40.17991 55.51006,58.184 76.72958,80.3036 20.87219,21.75754 31.70896,33.09373 54.75022,57.27342 30.02349,31.50689 36.12004,37.76788 36.6219,37.60968 0.27915,-0.088 0.43555,0.0748 0.34755,0.3617 -0.088,0.28693 4.3719,5.25493 9.91089,11.04 l 10.0709,10.5183 0.009,-138.72 0.009,-138.719999 h 30.4 30.4 l 0.0264,81.759989 0.0264,81.76001 2.4791,-9.6 c 6.95555,-26.93446 18.65053,-50.66713 35.99393,-73.0427 7.71294,-9.95084 8.99362,-11.40595 18.99287,-21.57984 19.30015,-19.637229 37.64147,-32.938219 61.02425,-44.254309 25.4416,-12.31248 52.90579,-19.53897 84.09627,-22.12776 10.50348,-0.87178 43.39339,-0.45558 50.80087,0.64285 19.07531,2.82861 34.01301,6.36008 48.32001,11.42346 11.6803,4.13377 15.2568,5.63636 27.36,11.49471 l 10.08,4.87906 v 36.042259 c 0,19.82325 -0.2168,36.04226 -0.4819,36.04226 -0.265,0 -2.641,-1.60466 -5.28,-3.56592 -26.4275,-19.64071 -55.9152,-32.86695 -84.02812,-37.68953 -15.04407,-2.58069 -38.7275,-2.9084 -53.24999,-0.73683 -39.59682,5.92099 -72.66218,24.38402 -98.70031,55.11229 -22.65818,26.73951 -34.01299,58.30503 -34.07973,94.73911 -0.0909,49.61703 21.43845,90.6188 63.34004,120.62867 22.47098,16.09369 48.23544,25.37445 78.2614,28.19099 10.65056,0.99905 33.55685,0.47377 43.3386,-0.99383 27.27051,-4.09154 52.88341,-15.98327 82.95401,-38.51455 3.9127,-2.93171 7.2967,-5.33039 7.52,-5.33039 0.2233,0 0.406,16.51586 0.406,36.70191 v 36.7019 l -7.209,3.54643 c -47.9109,23.56943 -102.59492,31.36529 -155.80528,22.21188 -25.43887,-4.37607 -53.05341,-14.25083 -73.01393,-26.10923 -1.86348,-1.10709 -3.48112,-2.01289 -3.59474,-2.01289 -0.56227,0 -16.12619,-10.55402 -20.27305,-13.74732 -22.27852,-17.15565 -41.2569,-37.63632 -54.42911,-58.73759 -10.56254,-16.9207 -20.50941,-41.45325 -23.737,-58.54396 -0.68615,-3.63335 -0.86948,10.49926 -1.13793,87.72099 l -0.32,92.05213 z M 580.76857,309.9589 c 0,-0.30248 2.87667,-10.02841 6.3926,-21.61316 3.51594,-11.58476 6.17994,-21.24994 5.92,-21.47818 -0.25993,-0.22823 -8.32299,-6.26091 -17.91792,-13.40595 -9.59492,-7.14504 -17.33606,-13.10024 -17.20252,-13.23378 0.13354,-0.13354 10.26008,-0.30393 22.50341,-0.37865 l 22.26062,-0.13585 7.04128,-21.12 c 3.87271,-11.616 7.15622,-21.25566 7.29671,-21.42147 0.5054,-0.59651 1.29028,1.50998 8.20724,22.02671 l 7.01858,20.81816 22.52954,0.1683 22.52946,0.1683 -17.94508,13.40194 c -16.64902,12.43396 -17.91862,13.52027 -17.578,15.04 0.20192,0.90094 3.08821,10.56082 6.4139,21.46642 3.32576,10.9056 5.95226,19.92292 5.83668,20.03848 -0.11559,0.11557 -8.23284,-5.41382 -18.03831,-12.28753 -9.80551,-6.8737 -18.14037,-12.50702 -18.52192,-12.51847 -0.38155,-0.0115 -8.44555,5.39164 -17.92,12.00689 -19.76178,13.79807 -18.82627,13.17902 -18.82627,12.45784 z"
     id="path74"
     inkscape:connector-curvature="0" />
  <path
     style="color:#000000;clip-rule:nonzero;display:inline;overflow:visible;visibility:visible;opacity:1;isolation:auto;mix-blend-mode:normal;color-interpolation:sRGB;color-interpolation-filters:linearRGB;solid-color:#000000;solid-opacity:1;fill:#ffffff;fill-opacity:1;fill-rule:evenodd;stroke:#000000;stroke-width:0.73618937px;stroke-linecap:butt;stroke-linejoin:miter;stroke-miterlimit:4;stroke-dasharray:none;stroke-dashoffset:0;stroke-opacity:1;color-rendering:auto;image-rendering:auto;shape-rendering:auto;text-rendering:auto;enable-background:accumulate"
     d="m 387.70709,478.80875 c -7.95415,-8.46538 -51.00229,-53.4217 -71.47264,-74.64079 -10.15605,-10.5275 -33.83751,-35.20825 -52.62547,-54.8461 -18.78797,-19.63785 -60.52917,-63.20186 -92.75823,-96.8089 -32.22905,-33.60705 -60.68947,-63.33989 -63.24537,-66.073 -2.5559,-2.7331 -4.9404,-4.96927 -5.29888,-4.96927 -0.37595,0 -0.65178,59.03801 -0.65178,139.50788 V 460.48645 H 71.47096 41.287197 l 0.0117,-213.67896 0.0117,-213.678957 5.34413,5.52142 c 2.939272,3.036781 19.581089,20.42033 36.981815,38.630107 36.325248,38.01421 54.768468,57.28995 152.740828,159.63561 39.07325,40.8174 76.53959,80.05648 83.25854,87.19796 6.71894,7.14147 12.59926,13.11216 13.06736,13.2682 0.64199,0.214 0.8511,-33.73585 0.8511,-138.18125 V 60.735633 h 29.81567 29.81566 l 0.0849,10.490699 c 0.0467,5.769884 0.16189,10.821983 0.25597,11.226887 0.0941,0.404904 0.25599,32.373931 0.35982,71.042271 0.20689,77.05084 -0.16379,72.00776 4.13957,56.31849 6.64429,-24.2239 19.13609,-48.46063 36.54974,-70.91425 7.55979,-9.74778 27.07863,-29.40444 37.38224,-37.64618 28.85962,-23.084457 63.58072,-38.421154 101.61477,-44.884362 15.91941,-2.705219 23.67941,-3.144894 49.67214,-2.814374 23.50607,0.298899 25.65491,0.440123 35.28427,2.318923 24.02359,4.687277 40.23787,9.908967 61.34059,19.75428 l 12.69926,5.924747 v 35.603276 c 0,19.58179 -0.17529,35.60326 -0.38954,35.60326 -0.21424,0 -4.15485,-2.66077 -8.75691,-5.91282 -26.01276,-18.38196 -53.33837,-30.09678 -81.80455,-35.0706 -10.69517,-1.86872 -44.86888,-1.86684 -54.81449,0.003 -17.52523,3.29492 -29.55334,7.16394 -43.80326,14.08998 -16.58854,8.0627 -28.69653,16.78908 -42.33457,30.51103 -25.0921,25.24651 -38.5233,52.59943 -42.67641,86.91136 -1.10213,9.1055 -0.92267,29.59433 0.3432,39.18369 4.10642,31.10735 16.75547,57.05363 38.99573,79.98972 25.20144,25.98991 54.04261,40.83148 91.31579,46.99079 10.95023,1.80949 44.288,1.81693 54.8461,0.0122 26.47798,-4.5259 52.07193,-16.28906 79.19139,-36.39691 3.23615,-2.39946 6.78472,-4.95289 7.88571,-5.67429 l 2.00181,-1.31155 v 36.43116 36.43116 l -9.75451,4.4744 c -24.34151,11.16549 -42.64539,16.87178 -67.54537,21.0575 -28.70612,4.82554 -62.02578,4.40244 -89.79545,-1.14022 -53.24492,-10.62738 -99.0887,-38.62377 -133.6595,-81.62468 -15.78011,-19.62809 -28.74823,-45.83305 -35.33905,-71.41037 -1.49895,-5.81706 -1.64431,-6.0762 -2.06469,-3.68095 -0.24871,1.41717 -0.70884,41.96252 -1.02251,90.10077 l -0.5703,87.52411 z"
     id="path7"
     inkscape:connector-curvature="0" />
</svg>
